<svg width="16" height="16" viewBox="0 0 16 16" fill="none" xmlns="http://www.w3.org/2000/svg">
<rect width="16" height="16" rx="8" fill="black"/>
<path d="M10.1818 10V10.4C10.1818 11.6 9.45454 12 8.36364 12H7.63636C6.54546 12 5.81818 11.6 5.81818 10.4C5.81818 10.1791 5.65236 10.0041 5.45402 9.95947C5.10752 9.88157 4.78636 9.69343 4.53253 9.4142C4.19156 9.03913 4 8.53043 4 8C4 7.46957 4.19156 6.96087 4.53253 6.58579C4.87351 6.21071 5.33597 6 5.81818 6M10.1818 10C10.664 10 11.1265 9.7893 11.4675 9.4142C11.8084 9.03913 12 8.53043 12 8C12 7.46957 11.8084 6.96087 11.4675 6.58579C11.2137 6.30657 10.8925 6.11844 10.546 6.04052C10.3476 5.99591 10.1818 5.82091 10.1818 5.6C10.1818 4.4 9.45454 4 8.36364 4H7.63636C6.54546 4 5.81818 4.4 5.81818 5.6V6M10.1818 10H8M5.81818 6H8" stroke="#BF4055" stroke-width="1.2"/>
</svg>
