<svg width="148" height="148" viewBox="0 0 148 148" fill="none" xmlns="http://www.w3.org/2000/svg">
<path d="M108.909 106V112.4C108.909 131.6 97.2726 138 79.8183 138H68.1817C50.7274 138 39.0909 131.6 39.0909 112.4C39.0909 108.866 36.4377 106.066 33.2644 105.351C27.7203 104.105 22.5818 101.095 18.5206 96.6272C13.0649 90.6261 10 82.4869 10 74C10 65.5131 13.0649 57.3739 18.5206 51.3726C23.9761 45.3714 31.3756 42 39.0909 42M108.909 106C116.625 106 124.024 102.629 129.48 96.6272C134.935 90.6261 138 82.4869 138 74C138 65.5131 134.935 57.3739 129.48 51.3726C125.418 46.9052 120.28 43.8951 114.736 42.6483C111.562 41.9346 108.909 39.1346 108.909 35.6C108.909 16.4 97.2726 10 79.8183 10H68.1817C50.7274 10 39.0909 16.4 39.0909 35.6V42M108.909 106H74M39.0909 42H74" stroke="#BF4055" stroke-width="20"/>
</svg>
